<?xml version="1.0" encoding="UTF-8"?>
<!DOCTYPE svg PUBLIC "-//W3C//DTD SVG 1.1//EN" "http://www.w3.org/Graphics/SVG/1.1/DTD/svg11.dtd">
<!-- Creator: CorelDRAW 2020 (64 Bit) -->
<svg xmlns="http://www.w3.org/2000/svg" xml:space="preserve" width="296.686mm" height="209.903mm" version="1.1" style="shape-rendering:geometricPrecision; text-rendering:geometricPrecision; image-rendering:optimizeQuality; fill-rule:evenodd; clip-rule:evenodd"
viewBox="0 0 29668.6 20990.28"
 xmlns:xlink="http://www.w3.org/1999/xlink"
 xmlns:xodm="http://www.corel.com/coreldraw/odm/2003">
 <defs>
  <style type="text/css">
   <![CDATA[
    .fil0 {fill:#003399}
    .fil1 {fill:#FFC12B}
   ]]>
  </style>
 </defs>
 <g id="Camada_x0020_1">
  <metadata id="CorelCorpID_0Corel-Layer"/>
  <path class="fil0" d="M14928.22 9892.66l1402.38 3368.82 -1286.39 3558.66 -975.32 10.55c0,0 -1265.34,84.36 -1455.11,-1549.98 0,0 15.8,-358.5 200.34,-843.55l1644.84 -4534.05 469.26 -10.45z"/>
  <polygon class="fil0" points="14498.31,7137.86 18660.44,16804.17 23595.17,16809.43 27145.9,7098.23 23228.78,7156.23 20822.08,7172.04 23574.05,8426.78 22105.64,12412.42 19901.81,7145.6 "/>
  <path class="fil1" d="M1528.32 7148.13l2520.06 2098.29 -21.2 5778.17c0,0 -79.06,1059.66 711.74,1528.9 0,0 369,268.89 1144.03,263.62l3078.89 10.55 5744.9 -7801.55 -838.42 -1881.75 -878.64 -1.5 -3996.21 5398.5 -10.61 -5382.8 -7454.54 -10.43z"/>
 </g>
</svg>
